<svg xmlns="http://www.w3.org/2000/svg" width="1200" height="630" viewBox="0 0 1200 630">
  <defs>
    <linearGradient id="bg" x1="0" y1="0" x2="1" y2="1">
      <stop offset="0%" stop-color="#FFF5F7"/>
      <stop offset="100%" stop-color="#FFE8EC"/>
    </linearGradient>
    <linearGradient id="textGrad" x1="0" y1="0" x2="1" y2="0">
      <stop offset="0%" stop-color="#FF2442"/>
      <stop offset="100%" stop-color="#FF6B8A"/>
    </linearGradient>
  </defs>

  <!-- 背景 -->
  <rect width="1200" height="630" fill="url(#bg)" rx="0"/>

  <!-- 左侧装饰：大西瓜 -->
  <g transform="translate(200, 315)">
    <circle cx="0" cy="0" r="180" fill="#4CAF50"/>
    <circle cx="0" cy="0" r="150" fill="#FF5252"/>
    <ellipse cx="-50" cy="-60" rx="10" ry="16" fill="#333" transform="rotate(-15 -50 -60)"/>
    <ellipse cx="50" cy="-60" rx="10" ry="16" fill="#333" transform="rotate(15 50 -60)"/>
    <ellipse cx="-60" cy="30" rx="10" ry="16" fill="#333" transform="rotate(-25 -60 30)"/>
    <ellipse cx="60" cy="30" rx="10" ry="16" fill="#333" transform="rotate(25 60 30)"/>
    <ellipse cx="0" cy="80" rx="10" ry="16" fill="#333"/>
    <text x="0" y="10" font-family="Arial Black,sans-serif" font-size="100" font-weight="900" fill="#FFF" text-anchor="middle">51</text>
    <text x="0" y="70" font-family="PingFang SC,Microsoft YaHei,sans-serif" font-size="42" font-weight="bold" fill="#FFB6C1" text-anchor="middle">吃瓜</text>
  </g>

  <!-- 右侧文字 -->
  <text x="700" y="240" font-family="Arial Black,sans-serif" font-size="80" font-weight="900" fill="url(#textGrad)">美女51吃瓜</text>
  <text x="700" y="320" font-family="PingFang SC,Microsoft YaHei,sans-serif" font-size="36" fill="#666">热点点评社区</text>
  <text x="700" y="380" font-family="PingFang SC,Microsoft YaHei,sans-serif" font-size="24" fill="#999">看热点 · 聊八卦 · 写点评</text>
  <text x="700" y="440" font-family="PingFang SC,Microsoft YaHei,sans-serif" font-size="20" fill="#bbb">吃瓜也要有态度！</text>

  <!-- 装饰圆点 -->
  <circle cx="1100" cy="80" r="30" fill="#FF5252" opacity="0.1"/>
  <circle cx="1140" cy="140" r="20" fill="#FF2442" opacity="0.08"/>
  <circle cx="1080" cy="550" r="25" fill="#FFB6C1" opacity="0.15"/>
</svg>